####
#
# OBJ File Generated by Meshlab
#
####
# Object finger_collision.obj
#
# Vertices: 16
# Faces: 24
#
####
vn -1.570796 1.570796 -1.570796
v -0.010700 -0.029000 0.018500
vn -1.570796 -1.570796 -1.570796
v -0.010700 -0.036000 0.018500
vn -1.570796 1.570796 1.570796
v -0.010700 -0.029000 0.039050
vn -1.570796 -1.570796 1.570796
v -0.010700 -0.036000 0.039050
vn 1.570796 -1.570796 -1.570796
v 0.010500 -0.036000 0.018500
vn 1.570796 1.570796 -1.570796
v 0.010500 -0.029000 0.018500
vn 1.570796 1.570796 1.570796
v 0.010500 -0.029000 0.039050
vn 1.570796 -1.570796 1.570796
v 0.010500 -0.036000 0.039050
vn 1.570796 -1.570796 -1.570796
v 0.010500 -0.031500 0.039050
vn 1.570796 1.570796 -1.570796
v 0.010500 -0.025000 0.039050
vn 1.570796 -1.570796 1.570796
v 0.010500 -0.031500 0.060050
vn 1.570796 1.570796 1.570796
v 0.010500 -0.025000 0.060050
vn -1.570796 1.570796 -1.570796
v -0.010600 -0.025000 0.039050
vn -1.570796 -1.570796 -1.570796
v -0.010600 -0.031500 0.039050
vn -1.570796 -1.570796 1.570796
v -0.010600 -0.031500 0.060050
vn -1.570796 1.570796 1.570796
v -0.010600 -0.025000 0.060050
# 16 vertices, 0 vertices normals

f 1//1 2//2 3//3
f 3//3 2//2 4//4
f 5//5 6//6 7//7
f 5//5 7//7 8//8
f 6//6 5//5 1//1
f 1//1 5//5 2//2
f 8//8 7//7 3//3
f 8//8 3//3 4//4
f 3//3 7//7 1//1
f 1//1 7//7 6//6
f 8//8 4//4 2//2
f 8//8 2//2 5//5
f 9//9 10//10 11//11
f 11//11 10//10 12//12
f 13//13 14//14 15//15
f 13//13 15//15 16//16
f 9//9 14//14 10//10
f 14//14 13//13 10//10
f 15//15 11//11 12//12
f 16//16 15//15 12//12
f 11//11 15//15 9//9
f 9//9 15//15 14//14
f 16//16 12//12 10//10
f 16//16 10//10 13//13
# 24 faces, 0 coords texture

# End of File
